{
	"asset":{
		"generator":"Khronos glTF Blender I/O v4.5.47",
		"version":"2.0"
	},
	"extensionsUsed":[
		"KHR_materials_clearcoat",
		"KHR_materials_specular",
		"KHR_materials_ior"
	],
	"scene":0,
	"scenes":[
		{
			"name":"Scene",
			"nodes":[
				0
			]
		}
	],
	"nodes":[
		{
			"mesh":0,
			"name":"P1_low_Cylinder.008"
		}
	],
	"materials":[
		{
			"doubleSided":true,
			"extensions":{
				"KHR_materials_clearcoat":{
					"clearcoatRoughnessFactor":1
				},
				"KHR_materials_specular":{
					"specularColorFactor":[
						2.0,
						2.0,
						2.0
					]
				},
				"KHR_materials_ior":{
					"ior":1
				}
			},
			"name":"KKS",
			"normalTexture":{
				"index":0
			},
			"pbrMetallicRoughness":{
				"baseColorTexture":{
					"index":1
				},
				"metallicRoughnessTexture":{
					"index":2
				}
			}
		}
	],
	"meshes":[
		{
			"name":"P1_low_Cylinder.008",
			"primitives":[
				{
					"attributes":{
						"POSITION":0,
						"NORMAL":1,
						"TEXCOORD_0":2,
						"TANGENT":3
					},
					"indices":4,
					"material":0
				}
			]
		}
	],
	"textures":[
		{
			"sampler":0,
			"source":0
		},
		{
			"sampler":0,
			"source":1
		},
		{
			"sampler":0,
			"source":2
		}
	],
	"images":[
		{
			"mimeType":"image/png",
			"name":"KKS_Normal2K",
			"uri":"KKS_Normal2K.png"
		},
		{
			"mimeType":"image/png",
			"name":"KKS_BaseColor2K",
			"uri":"KKS_BaseColor2K.png"
		},
		{
			"mimeType":"image/png",
			"name":"KKS_ORM2K",
			"uri":"KKS_ORM2K.png"
		}
	],
	"accessors":[
		{
			"bufferView":0,
			"componentType":5126,
			"count":3205,
			"max":[
				0.6791167855262756,
				0.7064793109893799,
				3.9246692657470703
			],
			"min":[
				-0.6791172623634338,
				-0.65175461769104,
				-5.228960037231445
			],
			"type":"VEC3"
		},
		{
			"bufferView":1,
			"componentType":5126,
			"count":3205,
			"type":"VEC3"
		},
		{
			"bufferView":2,
			"componentType":5126,
			"count":3205,
			"type":"VEC2"
		},
		{
			"bufferView":3,
			"componentType":5126,
			"count":3205,
			"type":"VEC4"
		},
		{
			"bufferView":4,
			"componentType":5123,
			"count":16140,
			"type":"SCALAR"
		}
	],
	"bufferViews":[
		{
			"buffer":0,
			"byteLength":38460,
			"byteOffset":0,
			"target":34962
		},
		{
			"buffer":0,
			"byteLength":38460,
			"byteOffset":38460,
			"target":34962
		},
		{
			"buffer":0,
			"byteLength":25640,
			"byteOffset":76920,
			"target":34962
		},
		{
			"buffer":0,
			"byteLength":51280,
			"byteOffset":102560,
			"target":34962
		},
		{
			"buffer":0,
			"byteLength":32280,
			"byteOffset":153840,
			"target":34963
		}
	],
	"samplers":[
		{
			"magFilter":9729,
			"minFilter":9987
		}
	],
	"buffers":[
		{
			"byteLength":186120,
			"uri":"hilt.bin"
		}
	]
}
